<?xml version="1.0" encoding="UTF-8"?>
<svg width="699px" height="195px" viewBox="0 0 699 195" version="1.1" xmlns="http://www.w3.org/2000/svg" xmlns:xlink="http://www.w3.org/1999/xlink">
    <!-- Generator: Sketch 52.3 (67297) - http://www.bohemiancoding.com/sketch -->
    <title>Group 10@2x</title>
    <desc>Created with Sketch.</desc>
    <defs>
        <polygon id="path-1" points="0 0.168 98.2424306 0.168 98.2424306 153.012056 0 153.012056"></polygon>
    </defs>
    <g id="Page-1" stroke="none" stroke-width="1" fill="none" fill-rule="evenodd">
        <g id="Group-10" transform="translate(0.000000, -1.000000)">
            <path d="M656.3622,57.5788 C657.4562,56.3458 658.5032,55.5248 659.0792,54.4508 C660.8742,51.1048 662.5922,47.7068 664.0992,44.2248 C664.4432,43.4298 663.8222,42.2158 663.6452,41.1958 C662.5842,41.5358 661.0552,41.5498 660.5492,42.2758 C658.9962,44.5078 657.9712,47.0998 656.4862,49.3868 C654.8732,51.8708 654.7032,54.2778 656.3622,57.5788 M579.1902,86.7488 C578.2952,86.9268 577.8912,87.0368 577.4812,87.0838 C571.6552,87.7608 566.8762,90.7898 562.1512,93.9228 C558.0482,96.6438 555.1232,100.4488 552.7622,104.6718 C552.3522,105.4058 552.5002,107.0368 553.0492,107.5518 C553.5622,108.0338 555.1842,107.9508 555.9182,107.4858 C564.0362,102.3378 572.1132,97.1208 580.0892,91.7568 C580.9782,91.1588 581.6072,89.5028 581.5312,88.3938 C581.4862,87.7278 579.8392,87.1728 579.1902,86.7488 M532.9912,137.7958 C532.8272,135.8768 532.7792,133.4508 532.3802,131.0848 C531.7712,127.4708 529.4462,126.6538 526.4362,128.8188 C522.3192,131.7798 518.3542,134.9888 514.0412,137.6298 C502.9372,144.4308 492.8052,152.4348 483.4462,161.4518 C479.6512,165.1078 478.5652,170.8818 481.2212,175.4118 C483.1382,178.6818 485.5352,181.6938 487.9122,184.6668 C490.4162,187.7988 493.8862,189.7298 497.7932,188.5718 C501.7522,187.3968 505.8822,185.7808 509.0632,183.2568 C512.8952,180.2168 515.8152,176.0238 519.1122,172.3148 C521.3172,169.8338 523.7722,167.5178 525.6262,164.7948 C531.0512,156.8288 532.8762,147.7888 532.9912,137.7958 M490.9752,128.9768 C492.1652,124.4848 493.2782,120.7678 494.0932,116.9878 C494.4702,115.2428 494.9902,112.8618 494.1562,111.6758 C492.8422,109.8078 490.7072,111.2918 488.9672,112.0758 C486.6752,113.1098 484.3522,114.1208 481.7372,111.5348 C483.7872,110.2678 485.6732,109.1458 487.5132,107.9518 C489.0312,106.9668 490.4952,105.8978 491.9832,104.8668 C493.2072,104.0188 494.3242,102.8458 495.6802,102.3968 C498.1032,101.5948 499.2702,100.0448 499.9942,97.7018 C502.7322,88.8498 504.4342,79.8018 505.6302,70.6278 C506.1862,66.3588 507.1302,62.1408 507.8532,57.8928 C508.2282,55.6888 508.6932,53.4748 508.7822,51.2528 C508.9332,47.4808 511.0092,44.9738 513.6542,42.6438 C515.0802,41.3878 516.2432,39.8348 517.5852,38.3488 C520.0542,39.9068 519.9532,40.3078 518.9272,43.1678 C516.8022,49.0898 514.9632,55.1148 513.0512,61.1118 C510.2822,69.7938 508.8612,78.7468 507.9232,87.7768 C507.7282,89.6548 506.7922,92.4008 509.0292,93.1338 C510.3022,93.5518 512.5922,91.9588 513.9742,90.7548 C518.9882,86.3878 523.9422,81.9328 528.6512,77.2438 C530.9822,74.9238 532.5222,71.8188 534.7962,69.4268 C537.8722,66.1908 541.5172,63.4888 544.5332,60.2038 C547.3062,57.1828 549.8472,53.8618 551.9872,50.3648 C554.6142,46.0708 553.0632,39.8058 549.1282,36.6108 C545.0362,33.2898 540.0202,32.2548 535.1432,30.8838 C528.7712,29.0938 522.2492,29.9598 515.7802,29.8278 C508.3122,29.6758 501.4952,32.3088 494.5232,34.4158 C492.3602,35.0698 489.9342,34.8548 487.3432,35.0608 C487.9812,31.3898 490.6292,30.3528 492.8242,29.3738 C497.1922,27.4258 501.7112,25.7248 506.3072,24.4058 C511.6972,22.8578 517.1872,21.4418 522.9252,22.3878 C523.5692,22.4948 524.2532,22.3238 524.9152,22.3568 C529.7462,22.5908 534.5782,22.8388 539.4092,23.0928 C543.1042,23.2868 546.8232,23.2988 550.4852,23.7588 C553.6842,24.1608 557.0852,24.5198 559.9212,25.8848 C564.9812,28.3198 569.4872,32.9678 567.1372,39.8318 C565.6542,44.1668 563.7412,48.0398 560.7252,51.5178 C557.4202,55.3288 554.7242,59.6748 551.3462,63.4118 C547.9702,67.1478 544.2572,70.6358 540.3742,73.8478 C532.8392,80.0788 525.0312,85.9788 517.4512,92.1568 C515.4622,93.7778 513.8932,95.9138 511.5572,98.4328 C514.0242,98.6328 515.7112,98.9838 517.3652,98.8638 C523.0082,98.4518 528.3022,99.9168 533.3542,102.0648 C535.3852,102.9278 536.9222,104.9698 538.6532,106.5088 C539.0152,106.8318 539.2092,107.3358 539.5392,107.7038 C541.8272,110.2558 542.6522,110.2108 543.9962,106.9518 C547.3252,98.8768 552.7682,92.2968 559.4442,87.0448 C566.6172,81.4018 575.0202,77.9658 584.4492,78.5878 C586.3572,78.7138 588.7622,79.7878 589.8852,81.2388 C591.3712,83.1598 590.6462,85.5158 588.8522,87.5508 C583.7772,93.3108 578.4552,98.7418 571.9582,102.9418 C566.2402,106.6378 560.6022,110.4568 554.9752,114.2898 C553.4772,115.3108 552.1292,116.5598 550.7602,117.7578 C550.4862,117.9978 550.2762,118.4928 550.2962,118.8568 C550.4672,121.9998 550.5892,125.1518 550.9462,128.2768 C551.2142,130.6308 552.9612,132.0278 555.0872,132.4258 C558.2162,133.0118 561.5642,133.2188 564.2682,131.2128 C568.7932,127.8558 573.3142,124.4348 577.4342,120.6068 C583.4502,115.0168 588.8972,108.8058 595.0192,103.3438 C597.6892,100.9608 598.8162,98.3068 599.6292,95.1228 C601.9552,86.0178 604.3502,76.9298 606.8202,67.8628 C607.2272,66.3668 608.0772,64.9688 608.8512,63.5988 C611.6742,58.6018 614.4312,53.5608 617.4422,48.6778 C620.6732,43.4368 625.6162,39.9418 630.8182,36.9498 C634.8782,34.6138 639.6152,37.5798 639.8202,42.3368 C639.8762,43.6378 639.6292,44.9998 639.2732,46.2638 C637.5192,52.4868 636.3412,58.9388 632.1252,64.1978 C629.8492,67.0378 627.6752,69.9598 625.4792,72.8628 C622.5272,76.7648 619.6742,80.7448 616.6372,84.5788 C613.7882,88.1768 613.0982,92.4758 612.6332,96.7568 C611.9522,103.0358 611.5502,109.3558 611.3332,115.6698 C611.2802,117.2048 612.4082,118.7808 612.9942,120.3378 C614.5722,119.5918 616.4792,119.1868 617.6722,118.0388 C622.8892,113.0228 627.1402,107.2018 631.0172,101.0998 C633.8972,96.5678 637.1692,92.2518 639.6552,87.5178 C640.9352,85.0798 641.0842,81.9628 641.3932,79.1148 C642.5202,68.7458 644.2742,58.5168 648.0312,48.7418 C649.7632,44.2368 652.7022,40.5308 656.5232,37.5518 C658.4132,36.0788 660.1942,34.4278 662.2262,33.1878 C663.5022,32.4088 665.1602,31.8488 666.6332,31.8798 C670.3262,31.9558 672.1322,34.2268 670.8772,37.6748 C669.1482,42.4228 666.9852,47.0368 664.7132,51.5588 C661.1692,58.6108 657.5792,65.6548 653.6212,72.4758 C650.9692,77.0468 650.5322,81.9278 650.4142,86.9088 C650.2442,94.0498 650.0362,101.2148 650.4302,108.3378 C650.8792,116.4538 654.1602,123.3888 660.9242,128.3218 C663.6722,130.3258 666.6252,131.6298 670.1982,131.3758 C677.4102,130.8618 684.6422,130.6278 691.8492,130.0568 C694.0992,129.8788 696.2922,128.9878 698.5122,128.4228 C698.6822,128.6788 698.8522,128.9338 699.0212,129.1888 C698.0402,129.8858 697.1282,130.7198 696.0662,131.2558 C689.4642,134.5878 682.3982,136.1718 675.1112,137.3248 C670.7722,138.0108 666.5182,138.6538 662.1022,138.9078 C649.9032,139.6098 639.0402,129.5128 638.2022,117.8368 C638.0182,115.2628 637.7922,112.6788 637.3392,110.1428 C637.1372,109.0128 636.5502,107.4138 635.7222,107.0898 C634.9412,106.7838 633.3302,107.6018 632.5752,108.3928 C628.5602,112.5978 624.7152,116.9648 620.7802,121.2478 C616.1702,126.2658 611.0222,130.1618 603.6312,128.6998 C602.5362,128.4838 601.2502,127.8508 600.6032,126.9948 C597.5542,122.9618 597.2812,118.0258 596.5802,113.2658 C596.0792,109.8638 594.8372,109.1578 592.0842,111.3088 C588.4872,114.1178 585.0582,117.1498 581.6682,120.2098 C576.2552,125.0948 571.1262,130.3188 565.4812,134.9128 C563.1652,136.7968 559.9102,137.8728 556.9132,138.4698 C554.1452,139.0228 551.1172,138.6948 548.2692,138.2928 C545.2612,137.8698 543.5682,138.5318 542.9392,141.5638 C541.2682,149.6138 537.2812,156.6228 533.0982,163.5018 C527.1522,173.2798 519.5772,181.8338 511.4462,189.7738 C507.8132,193.3218 503.2172,196.3678 497.4292,195.7468 C496.3582,195.6318 495.2542,195.6248 494.1832,195.7408 C487.0052,196.5208 482.6812,192.1718 478.9452,187.0648 C477.1402,184.5978 475.2962,181.8868 474.5302,179.0048 C473.7332,176.0028 473.8842,172.6248 474.2442,169.4828 C474.5012,167.2398 475.7732,165.1088 476.6322,162.9438 C476.7782,162.5758 477.0582,162.1138 477.3892,161.9878 C483.0962,159.8068 484.6162,153.5678 488.9762,150.0768 C491.7292,147.8728 494.3402,145.4908 497.0402,143.2178 C505.6512,135.9678 515.3672,130.3928 525.1042,124.8708 C529.4292,122.4178 530.8552,119.8148 528.7902,116.2638 C527.8622,114.6688 525.9932,113.4868 524.3322,112.4778 C519.4712,109.5248 514.2432,107.8558 508.4292,108.2548 C506.4312,108.3908 505.4342,109.1568 504.9312,111.0588 C503.5892,116.1248 502.0172,121.1308 500.7582,126.2148 C500.2572,128.2398 499.2042,128.9978 497.2872,128.9798 C495.4802,128.9638 493.6722,128.9768 490.9752,128.9768" id="Fill-1" fill="#000000"></path>
            <path d="M178.4246,119.3652 C178.7336,119.4562 179.0416,119.5482 179.3506,119.6392 C180.2366,118.8142 181.3326,118.1262 181.9756,117.1412 C186.4656,110.2682 189.7726,102.7892 192.6926,95.1552 C193.5056,93.0292 193.5846,90.6122 193.9076,88.3152 C194.1256,86.7642 193.2246,86.3572 191.9206,86.8172 C191.2446,87.0562 190.5846,87.4872 190.0576,87.9822 C186.6106,91.2212 184.2246,95.1612 182.7026,99.6112 C181.4426,103.2992 180.0616,106.9722 179.1916,110.7562 C178.5526,113.5382 178.6536,116.4892 178.4246,119.3652 M69.5106,114.2512 C70.7016,113.3002 71.7286,112.7392 72.4036,111.8962 C75.7766,107.6902 79.2466,103.5422 82.3216,99.1222 C86.2556,93.4702 89.9936,87.6652 93.4886,81.7332 C94.4726,80.0632 94.4916,77.7262 94.5926,75.6772 C94.6356,74.7932 93.9366,73.3142 93.2616,73.1032 C92.5406,72.8762 91.1956,73.6002 90.5736,74.3062 C89.3226,75.7282 88.4626,77.4842 87.2916,78.9872 C82.4926,85.1472 77.9996,91.4672 75.1376,98.8332 C74.2746,101.0552 73.2246,103.4722 71.5536,105.0522 C68.8496,107.6092 68.5006,110.3362 69.5106,114.2512 M227.2216,111.2672 C230.5586,110.7292 230.8836,110.3742 231.8226,107.8762 C232.3976,106.3482 233.1536,104.8542 234.0446,103.4862 C235.4236,101.3712 237.1466,99.4722 238.4426,97.3122 C241.9656,91.4392 245.4526,85.5392 248.7296,79.5272 C250.5466,76.1932 252.2296,72.7192 253.4226,69.1262 C256.3886,60.1952 257.7216,50.9102 258.5016,41.5622 C258.5666,40.7862 257.0876,39.1012 256.7416,39.2062 C255.2406,39.6622 253.3156,40.2772 252.5966,41.4692 C250.2856,45.2972 248.2116,49.3092 246.4716,53.4302 C244.0466,59.1702 242.3006,65.2062 239.7386,70.8782 C234.7516,81.9222 231.2876,93.4462 228.1976,105.1072 C227.6766,107.0742 227.5466,109.1442 227.2216,111.2672 M263.0216,109.6452 C260.3036,113.5572 258.1256,117.1992 255.4456,120.4232 C251.8576,124.7382 247.7026,128.5812 244.1106,132.8932 C237.5216,140.8022 229.1586,144.7352 218.9486,144.9592 C216.3986,145.0152 214.0786,143.0762 213.5146,140.3812 C213.3276,139.4872 213.1506,138.5912 213.0056,137.6902 C212.8646,136.8112 212.7696,135.9242 212.5796,134.4722 C210.8226,135.1882 209.2496,135.5222 208.0396,136.3732 C202.1006,140.5492 195.3826,142.9652 188.5086,144.8582 C184.8686,145.8602 181.7116,143.7102 179.0616,141.4152 C176.2986,139.0222 176.3456,139.0642 173.1886,141.0072 C168.7326,143.7492 164.2976,146.8302 159.4216,148.5212 C150.3806,151.6572 144.6656,148.5652 141.4616,139.0872 C139.3336,132.7942 139.5506,125.6872 138.9266,118.9252 C138.7886,117.4282 139.4656,115.8322 139.8756,114.3122 C141.2756,109.1232 142.7676,103.9592 144.1126,98.7572 C144.3436,97.8652 144.0256,96.8312 143.9166,95.1852 C142.5676,96.0922 141.4466,96.5132 140.8206,97.3192 C136.6396,102.7012 132.7416,108.3112 128.4106,113.5662 C122.0426,121.2912 117.5446,130.5212 109.5926,136.9632 C109.0176,137.4292 108.4206,137.8942 107.7666,138.2282 C106.5416,138.8532 105.5066,138.5592 105.4986,137.0792 C105.4886,134.8852 105.5656,132.6562 105.9556,130.5052 C106.3826,128.1552 107.1616,125.8622 107.8716,123.5702 C109.0606,119.7302 110.3156,115.9102 111.5426,112.0812 C111.3276,111.9742 111.1126,111.8662 110.8976,111.7592 C110.0316,113.6122 109.1616,115.4622 108.3046,117.3192 C108.1046,117.7522 108.0576,118.4852 107.7526,118.6062 C102.7456,120.5892 100.7096,125.3382 97.7496,129.2232 C93.0486,135.3902 88.2736,141.5742 81.8206,145.9742 C75.4786,150.2992 68.2076,152.0972 60.5066,151.6622 C57.2256,151.4772 54.2746,147.8692 53.8686,144.1892 C53.6516,142.2172 53.2576,140.2542 52.7866,138.3252 C52.3776,136.6512 51.1906,136.1992 49.7416,137.0992 C48.4026,137.9302 47.1676,138.9352 45.9256,139.9132 C42.3776,142.7082 38.5776,144.9892 34.0796,145.9082 C31.7056,146.3932 29.1696,144.5122 28.5936,142.0612 C28.1376,140.1252 28.4956,138.6972 30.2806,137.7132 C32.8166,136.3142 35.3306,134.8732 37.8846,133.5082 C38.7606,133.0412 39.7396,132.7712 40.6536,132.3692 C43.7506,131.0032 46.7866,129.4742 49.9506,128.2862 C52.5776,127.2992 54.2986,125.7172 55.1616,123.0282 C56.5836,118.5942 58.0006,114.1492 59.6846,109.8112 C61.3356,105.5552 63.2396,101.3912 65.1756,97.2532 C67.4296,92.4342 69.5236,87.4952 72.2796,82.9692 C74.4566,79.3922 77.3666,76.2092 80.2456,73.1252 C83.9276,69.1822 87.9646,65.5732 91.7326,61.7072 C93.9956,59.3852 96.7896,58.6092 99.8256,58.4562 C102.2286,58.3362 104.2596,60.9312 104.2306,64.1232 C104.1736,70.5712 102.4516,76.5812 99.2716,82.1982 C96.3266,87.4012 93.5956,92.7302 90.5356,97.8642 C86.0216,105.4372 81.2546,112.8522 74.4016,118.6222 C71.6826,120.9112 68.9216,123.1532 66.2526,125.4992 C65.6026,126.0712 64.9606,126.9092 64.7886,127.7252 C63.9876,131.5392 63.1326,135.3642 62.7306,139.2312 C62.4286,142.1452 64.1676,143.6402 67.1506,143.7192 C72.3276,143.8552 76.9966,142.3942 81.0296,139.1142 C85.2816,135.6552 90.1516,132.6812 93.5546,128.5162 C98.7006,122.2162 102.8796,115.1142 107.3316,108.2632 C109.6396,104.7112 111.7366,101.0142 113.7726,97.2972 C116.1236,93.0022 118.4056,88.6622 120.5236,84.2482 C122.1226,80.9192 123.4636,77.4622 124.8316,74.0272 C125.9326,71.2662 127.2296,68.7252 130.0566,67.3082 C130.9316,66.8682 131.7096,66.2352 132.7896,65.5202 C133.9536,66.6712 135.2136,68.4072 134.8186,71.1302 C134.2626,74.9642 133.0236,78.4992 131.2576,81.9392 C129.5646,85.2402 128.1396,88.6842 126.6986,92.1092 C123.1856,100.4572 119.6666,108.8042 116.3256,117.2212 C115.8206,118.4932 116.2546,120.1382 116.2546,121.6112 C116.6476,121.7562 117.0406,121.9022 117.4336,122.0472 C119.1196,119.8962 120.9906,117.8632 122.4576,115.5722 C126.8346,108.7362 130.8286,101.6462 135.4156,94.9592 C138.2116,90.8822 141.6356,87.1762 145.1216,83.6432 C149.2456,79.4622 153.6686,75.5642 158.1286,71.7362 C159.1836,70.8292 160.8996,70.6912 163.1286,69.9152 C162.6516,73.0982 162.6056,75.5242 161.9016,77.7432 C158.8396,87.4032 155.4136,96.9512 152.4506,106.6412 C149.6136,115.9252 149.4806,125.3732 152.4136,134.6802 C152.9626,136.4242 154.5886,137.9282 155.9906,139.2542 C156.5286,139.7632 158.0146,139.8382 158.7456,139.4702 C161.1886,138.2372 163.5526,136.8112 165.7986,135.2452 C166.4846,134.7662 167.2156,133.4552 167.0286,132.7692 C165.8656,128.5012 167.0756,124.5102 168.5386,120.7092 C172.0266,111.6512 175.7736,102.6902 179.5946,93.7672 C180.5656,91.5002 181.9646,89.3112 183.5816,87.4462 C188.0996,82.2322 192.6656,77.0302 198.5256,73.2072 C202.1186,70.8632 203.6666,71.5412 204.4776,75.7742 C205.4156,80.6712 206.9446,85.6182 204.5876,90.4632 C202.3706,95.0212 199.8606,99.4362 197.4546,103.9012 C195.6826,107.1902 193.8656,110.4552 192.0786,113.7372 C189.5346,118.4092 186.8946,123.0332 184.5216,127.7902 C183.7696,129.2982 182.9266,132.2052 183.5286,132.6752 C185.3776,134.1192 188.0296,135.6902 190.1486,135.4262 C198.1056,134.4382 205.5726,131.6032 212.0896,126.8482 C213.6326,125.7222 214.8646,123.4912 215.2356,121.5742 C216.0226,117.5112 216.2616,113.3282 216.5186,109.1812 C216.9086,102.8772 218.9206,97.0022 221.0526,91.1622 C224.8636,80.7192 228.6146,70.2482 232.7346,59.9262 C234.3816,55.7982 236.7396,51.9072 239.1356,48.1392 C241.4446,44.5102 243.9386,40.9152 246.8616,37.7822 C250.4166,33.9722 254.4786,30.6312 258.3806,27.1532 C259.5866,26.0782 260.9056,25.2042 261.6706,27.7512 C261.8566,28.3732 262.8586,28.7222 263.4136,29.2692 C264.3736,30.2152 265.9376,31.1362 266.0736,32.2152 C266.4116,34.9052 266.6136,37.8162 265.9366,40.3932 C263.6786,48.9872 261.2816,57.5662 258.3856,65.9602 C256.9506,70.1182 254.3156,73.8632 252.2086,77.7882 C249.8906,82.1062 247.5646,86.4212 245.2256,90.7282 C242.7006,95.3762 240.3136,100.1092 237.5726,104.6282 C235.2156,108.5142 232.3516,112.0902 229.8916,115.9182 C228.2526,118.4682 226.8606,121.1852 225.4876,123.8922 C224.2706,126.2922 225.5616,131.2022 227.8286,133.3702 C229.8746,135.3262 231.9816,135.1732 235.4506,133.9212 C241.5326,131.7272 245.6206,127.2472 249.7626,122.6592 C253.6616,118.3412 257.8016,114.2422 261.8486,110.0592 C261.9896,109.9132 262.2706,109.9022 263.0216,109.6452" id="Fill-3" fill="#000000"></path>
            <path d="M400.2823,97.3933 L401.4633,97.9483 C403.5533,95.5423 405.8213,93.2653 407.6833,90.6943 C409.5073,88.1743 411.3253,85.4563 410.3623,82.0293 C410.1583,81.3053 409.6753,80.5333 409.0883,80.0993 C408.8203,79.9013 407.8803,80.3453 407.4313,80.7223 C406.7513,81.2933 406.0873,81.9803 405.6743,82.7553 C404.4283,85.0963 403.1053,87.4293 402.1953,89.9063 C401.3113,92.3113 400.9003,94.8903 400.2823,97.3933 M345.5213,123.1373 C346.5493,123.0243 346.8283,123.0703 347.0213,122.9613 C353.7623,119.1673 358.7963,113.6353 362.7793,107.1243 C363.6573,105.6893 364.1083,103.8943 364.3413,102.2073 C364.4423,101.4773 363.6593,100.3613 362.9613,99.8763 C362.5103,99.5643 361.2523,99.8193 360.7533,100.2653 C356.3413,104.2083 351.9583,108.2373 349.3083,113.6503 C347.8853,116.5563 346.8873,119.6703 345.5213,123.1373 M295.8453,81.0743 C295.0763,82.0033 294.4473,82.6363 293.9663,83.3673 C292.5593,85.5103 291.0893,87.6253 289.8663,89.8723 C287.7393,93.7823 285.3263,97.6253 283.8793,101.7903 C282.4883,105.7943 281.9283,110.1443 281.4693,114.3923 C281.1893,116.9823 281.6473,119.6903 282.0603,122.2993 C282.2463,123.4733 283.0533,124.9543 284.6483,123.4903 C288.5453,119.9103 292.8883,116.6183 293.4683,110.7163 C293.5303,110.0903 293.9983,109.5053 294.2703,108.8983 C296.8363,103.1773 299.1623,97.3993 298.5283,90.9193 C298.2093,87.6643 298.3713,84.2873 295.8453,81.0743 M269.0763,103.9603 C267.2703,105.6473 265.4653,107.3353 263.4483,109.2213 C263.3213,108.5253 263.1623,108.2093 263.2563,108.0893 C265.8943,104.6863 268.6743,101.3863 271.1843,97.8913 C273.3593,94.8633 275.1883,91.5893 277.2533,88.4793 C278.8043,86.1443 280.4213,83.8483 282.1273,81.6253 C284.3933,78.6743 286.7193,75.7663 289.1153,72.9213 C293.6533,67.5353 298.5493,67.6303 302.7213,73.2633 C304.2433,75.3183 305.4443,77.6203 306.6903,79.8663 C307.0353,80.4893 307.1623,81.3163 307.1453,82.0443 C306.9623,89.8413 305.4583,97.2473 302.2413,104.4963 C299.2893,111.1453 295.4103,117.0213 290.7823,122.4873 C289.0223,124.5673 286.8693,126.3103 284.9713,128.2813 C284.1093,129.1753 282.6213,130.5553 282.8543,131.1743 C283.2663,132.2683 284.6603,133.4273 285.8493,133.7163 C290.0683,134.7443 293.9853,134.2343 297.3893,131.0043 C301.9483,126.6783 306.6753,122.5233 311.4473,118.4313 C317.4383,113.2933 322.3873,107.2553 327.1533,101.0193 C329.2603,98.2623 331.9963,95.9413 333.8473,93.0403 C336.8323,88.3633 339.2243,83.3113 342.0633,78.5353 C343.3633,76.3473 344.8553,74.0793 346.8143,72.5623 C347.6913,71.8833 350.3983,72.4593 351.4073,73.3983 C352.2673,74.1993 352.4923,76.6033 351.9483,77.8343 C349.3033,83.8113 346.2423,89.6023 343.4643,95.5233 C342.3733,97.8483 341.6903,100.3603 340.7233,102.7473 C339.2943,106.2733 337.5763,109.6943 336.3433,113.2833 C334.3233,119.1633 332.5203,125.1213 330.8253,131.1023 C330.5893,131.9323 331.4893,133.0833 331.8643,134.0863 C332.7743,133.4763 334.1113,133.0733 334.5263,132.2223 C337.5843,125.9553 340.2043,119.4643 343.4853,113.3233 C345.4333,109.6793 348.2633,106.4893 350.8253,103.1953 C352.8583,100.5793 355.0163,98.0503 357.2583,95.6103 C358.4193,94.3453 359.7643,93.1593 361.2323,92.2853 C364.7303,90.2043 368.2703,88.1533 371.9583,86.4483 C373.6923,85.6463 375.8123,85.3583 377.7493,85.3833 C382.1543,85.4413 383.6103,87.6993 382.2903,91.9393 C380.3873,98.0503 377.3483,103.6013 372.7093,107.9543 C366.4613,113.8163 359.7843,119.2183 353.3613,124.8963 C352.6093,125.5603 352.2993,126.7253 351.7853,127.6583 C352.7553,128.1413 353.8023,129.1423 354.6823,129.0123 C357.5063,128.5953 360.3553,127.9993 363.0403,127.0403 C370.5333,124.3653 376.9143,119.7243 383.1743,114.9673 C384.3123,114.1023 385.1813,112.5663 385.6313,111.1653 C387.6883,104.7623 389.4113,98.2503 391.5633,91.8813 C392.2883,89.7363 393.7673,87.7773 395.1743,85.9433 C400.4053,79.1263 406.6263,73.4703 414.5853,69.9273 C417.3323,68.7043 418.2283,69.1293 418.5583,72.0613 C419.2223,77.9513 417.0853,83.1353 414.6953,88.3503 C411.2513,95.8653 405.9423,102.0713 401.1243,108.6333 C399.7033,110.5703 398.0723,112.3963 396.9503,114.4943 C396.2963,115.7173 396.2903,117.3793 396.2983,118.8423 C396.3133,121.5753 396.2883,124.3543 396.7623,127.0293 C397.4063,130.6613 399.8603,132.4963 403.5433,132.2283 C409.7493,131.7763 415.7163,130.2113 421.1753,127.1963 C423.7563,125.7713 426.0663,123.8373 428.4333,122.0473 C429.9583,120.8933 430.4873,120.7673 433.5373,121.9673 C430.9903,123.8443 428.8223,125.5083 426.5853,127.0733 C423.4623,129.2603 420.1543,131.2063 417.1703,133.5653 C414.0893,136.0003 410.5233,136.8883 406.8583,137.6843 C405.8843,137.8953 404.8893,138.0263 403.9323,138.2943 C395.6013,140.6253 388.9563,138.2383 383.8473,131.0513 C381.9983,128.4503 381.2743,128.2153 378.4413,129.4143 C373.3113,131.5853 368.3203,134.1993 363.0283,135.8473 C357.4813,137.5733 351.6093,138.5753 345.9693,135.8533 C340.2953,133.1153 337.9273,133.7393 335.7243,139.6863 C332.5783,148.1793 329.8183,156.8143 326.9383,165.4043 C325.5913,169.4243 324.4053,173.4983 323.0473,177.5133 C321.9203,180.8453 318.6853,181.6033 315.6043,183.3313 C315.6043,180.4593 315.2343,177.8303 315.6653,175.3403 C318.2793,160.2583 320.9863,145.1913 323.8663,130.1583 C324.7233,125.6813 326.2893,121.3433 327.4193,116.9133 C327.8823,115.0973 328.0473,113.2053 328.3483,111.3473 C328.1683,111.1713 327.9883,110.9943 327.8083,110.8183 C326.5573,111.5863 325.0723,112.1323 324.0913,113.1593 C316.0613,121.5703 308.5103,130.5293 297.7183,135.6913 C292.8533,138.0173 288.0033,140.3963 283.0293,142.4673 C278.7043,144.2683 273.0843,142.0533 270.2733,138.4653 C264.1873,130.6983 265.6433,122.6523 267.5813,114.2993 C268.3543,110.9683 269.1573,107.6453 269.9473,104.3183 C269.6563,104.1983 269.3663,104.0793 269.0763,103.9603" id="Fill-5" fill="#000000"></path>
            <g id="Group-9" transform="translate(0.000000, 0.832000)">
                <mask id="mask-2" fill="white">
                    <use xlink:href="#path-1"></use>
                </mask>
                <g id="Clip-8"></g>
                <path d="M7.6579,152.6499 C8.5239,149.3639 9.2519,146.3919 10.0949,143.4529 C11.8099,137.4659 13.5729,131.4929 15.3419,125.5209 C18.7869,113.8839 22.2519,102.2529 25.7029,90.6169 C26.4419,88.1249 26.0679,87.2189 23.3059,85.4249 C24.2529,84.6729 25.0319,83.5409 25.9119,83.4549 C28.0929,83.2429 28.9649,81.9899 29.4349,80.1649 C31.2819,72.9949 33.1519,65.8289 34.9339,58.6419 C35.7939,55.1769 36.5069,51.6739 37.2209,48.1749 C37.3849,47.3749 37.4069,46.4979 37.2759,45.6929 C36.6309,41.7249 36.9589,41.1999 40.3489,39.0809 C43.2079,37.2939 45.8869,35.2229 48.6809,33.3279 C49.3729,32.8589 50.1989,32.5869 50.9629,32.2239 C51.1849,33.1349 51.7449,34.1179 51.5699,34.9449 C50.8829,38.1949 49.9419,41.3899 49.1369,44.6159 C47.5089,51.1479 45.9009,57.6859 44.2999,64.2249 C43.8289,66.1519 43.3559,68.0819 43.0049,70.0319 C42.9149,70.5309 43.2899,71.1119 43.5189,71.8829 C46.7669,71.2219 48.6759,68.7499 50.8349,66.8539 C57.6999,60.8249 64.4899,54.7009 71.1239,48.4189 C76.6409,43.1949 81.3279,37.3229 84.2999,30.1769 C85.7769,26.6269 87.4689,23.2659 87.0729,19.2249 C86.7259,15.6759 85.1419,13.0719 82.0199,11.4639 C74.3699,7.5249 66.4659,7.4409 58.5769,10.4869 C54.3969,12.1019 50.1969,13.9119 46.4379,16.3119 C42.1229,19.0669 38.1899,22.4599 34.2679,25.7829 C30.6029,28.8879 27.0269,32.1249 23.6699,35.5569 C19.3249,39.9989 14.9679,44.4919 12.8529,50.5789 C12.4069,51.8619 11.8429,52.9119 13.1659,54.1679 C14.2339,55.1809 13.4269,58.2759 12.1569,59.3049 C9.3839,61.5529 6.1629,62.6829 2.6779,63.1569 C0.6899,63.4269 -0.6451,61.8569 0.3219,60.1149 C2.0019,57.0869 3.7369,54.0349 5.8649,51.3199 C11.3549,44.3159 16.8869,37.3259 22.7629,30.6489 C27.0329,25.7959 31.8289,21.4349 37.5829,18.2119 C40.5699,16.5389 43.1059,14.0669 46.0759,12.3559 C52.2909,8.7739 58.3559,4.9549 65.4089,2.9169 C71.1469,1.2589 76.9449,0.0619 82.8109,0.1749 C87.5869,0.2679 92.6199,0.7209 96.1209,5.0749 C98.6039,8.1629 98.5519,11.5629 97.7529,15.0099 C97.2969,16.9739 96.1279,18.7709 95.2989,20.6519 C95.1009,21.1009 94.8119,21.5919 94.8399,22.0469 C95.2059,27.9759 91.0719,31.7989 88.0619,36.0189 C85.1819,40.0569 81.8159,43.7819 78.4009,47.3969 C74.3169,51.7219 70.1149,55.9689 65.6399,59.8769 C63.5749,61.6809 60.5109,62.3029 58.2999,63.9859 C54.2799,67.0449 50.8219,70.8899 46.6489,73.6889 C40.7399,77.6529 38.6759,83.6929 36.5899,89.8319 C32.9249,100.6159 29.1059,111.3579 25.8369,122.2629 C23.4529,130.2189 21.8819,138.4159 19.8839,146.4899 C18.7619,151.0199 15.8699,153.1309 11.1419,153.0069 C10.1559,152.9819 9.1729,152.8099 7.6579,152.6499" id="Fill-7" fill="#000000" mask="url(#mask-2)"></path>
            </g>
        </g>
    </g>
</svg>